{
  "source": "C:\\Users\\Peter\\Desktop\\stuff\\MIUN\\quantitative_research\\video_compression\\videos\\BVI-HD\\CalmingWater_1920x1080_60fps.mp4",
  "output": "C:\\Users\\Peter\\Desktop\\stuff\\MIUN\\quantitative_research\\video_compression\\compressed_videos\\BVI-HD\\av1\\12\\CalmingWater_1920x1080_60fps_av1.mkv",
  "codec": "av1",
  "ok": "Input #0, mov,mp4,m4a,3gp,3g2,mj2, from 'C:\\Users\\Peter\\Desktop\\stuff\\MIUN\\quantitative_research\\video_compression\\videos\\BVI-HD\\CalmingWater_1920x1080_60fps.mp4':\n  Metadata:\n    major_brand     : isom\n    minor_version   : 512\n    compatible_brands: isomiso2avc1mp41\n    encoder         : Lavf54.28.101\n  Duration: 00:00:05.00, start: 0.000000, bitrate: 623787 kb/s\n  Stream #0:0[0x1](und): Video: h264 (High 4:4:4 Predictive) (avc1 / 0x31637661), yuv420p(progressive), 1920x1080, 623782 kb/s, 60 fps, 60 tbr, 60 tbn (default)\n    Metadata:\n      handler_name    : VideoHandler\n      vendor_id       : [0][0][0][0]\n[out#0/matroska @ 000002a4f5c49480] Codec AVOption b:a (set bitrate (in bits/s)) has not been used for any stream. The most likely reason is either wrong type (e.g. a video option with no video streams) or that it is a private option of some decoder which was not actually used for any stream.\nStream mapping:\n  Stream #0:0 -> #0:0 (h264 (native) -> av1 (libsvtav1))\nPress [q] to stop, [?] for help\nSvt[info]: -------------------------------------------\nSvt[info]: SVT [version]:\tSVT-AV1 Encoder Lib v3.1.0-19-g6ecfe8ec\nSvt[info]: SVT [build]  :\tGCC 15.2.0\t 64 bit\nSvt[info]: LIB Build date: Aug 17 2025 11:37:13\nSvt[info]: -------------------------------------------\nSvt[info]: Level of Parallelism: 5\nSvt[info]: Number of PPCS 93\nSvt[info]: [asm level on system : up to avx2]\nSvt[info]: [asm level selected : up to avx2]\nSvt[info]: -------------------------------------------\nSvt[info]: SVT [config]: main profile\ttier (auto)\tlevel (auto)\nSvt[info]: SVT [config]: width / height / fps numerator / fps denominator \t\t: 1920 / 1080 / 60 / 1\nSvt[info]: SVT [config]: bit-depth / color format \t\t\t\t\t: 8 / YUV420\nSvt[info]: SVT [config]: preset / tune / pred struct \t\t\t\t\t: 4 / PSNR / random access\nSvt[info]: SVT [config]: gop size / mini-gop size / key-frame type \t\t\t: 321 / 16 / key frame\nSvt[info]: SVT [config]: BRC mode / target bitrate (kbps)\t\t\t\t: VBR / 12000 \nSvt[info]: SVT [config]: AQ mode / Variance Boost \t\t\t\t\t: 2 / 0\nSvt[info]: SVT [config]: sharpness / luminance-based QP bias \t\t\t\t: 0 / 0\nSvt[info]: SVT [config]: QP scale compress strength \t\t\t\t\t: 0\nSvt[info]: -------------------------------------------\nOutput #0, matroska, to 'C:\\Users\\Peter\\Desktop\\stuff\\MIUN\\quantitative_research\\video_compression\\compressed_videos\\BVI-HD\\av1\\12\\CalmingWater_1920x1080_60fps_av1.mkv':\n  Metadata:\n    major_brand     : isom\n    minor_version   : 512\n    compatible_brands: isomiso2avc1mp41\n    encoder         : Lavf62.3.100\n  Stream #0:0(und): Video: av1 (AV01 / 0x31305641), yuv420p(tv, progressive), 1920x1080, q=2-31, 12000 kb/s, 60 fps, 1k tbn (default)\n    Metadata:\n      encoder         : Lavc62.11.100 libsvtav1\n      handler_name    : VideoHandler\n      vendor_id       : [0][0][0][0]\n    Side data:\n      cpb: bitrate max/min/avg: 0/0/12000000 buffer size: 12000000 vbv_delay: N/A\nframe=    0 fps=0.0 q=0.0 size=       0KiB time=N/A bitrate=N/A speed=N/A elapsed=0:00:01.63    \nframe=    0 fps=0.0 q=0.0 size=       0KiB time=N/A bitrate=N/A speed=N/A elapsed=0:00:02.25    \nframe=    0 fps=0.0 q=0.0 size=       0KiB time=N/A bitrate=N/A speed=N/A elapsed=0:00:02.89    \nframe=    0 fps=0.0 q=0.0 size=       0KiB time=N/A bitrate=N/A speed=N/A elapsed=0:00:03.52    \nframe=    0 fps=0.0 q=0.0 size=       0KiB time=N/A bitrate=N/A speed=N/A elapsed=0:00:04.11    \nframe=    0 fps=0.0 q=0.0 size=       0KiB time=N/A bitrate=N/A speed=N/A elapsed=0:00:04.65    \nframe=    0 fps=0.0 q=0.0 size=       0KiB time=N/A bitrate=N/A speed=N/A elapsed=0:00:05.22    \nframe=    0 fps=0.0 q=0.0 size=       0KiB time=N/A bitrate=N/A speed=N/A elapsed=0:00:05.86    \nframe=    0 fps=0.0 q=0.0 size=       0KiB time=N/A bitrate=N/A speed=N/A elapsed=0:00:06.37    \nframe=    1 fps=0.1 q=33.0 size=       1KiB time=00:00:00.00 bitrate=N/A speed=   0x elapsed=0:00:06.90    \nframe=    1 fps=0.1 q=33.0 size=       1KiB time=00:00:00.00 bitrate=N/A speed=   0x elapsed=0:00:07.44    \nframe=    1 fps=0.1 q=33.0 size=       1KiB time=00:00:00.00 bitrate=N/A speed=   0x elapsed=0:00:08.03    \nframe=    1 fps=0.1 q=33.0 size=       1KiB time=00:00:00.00 bitrate=N/A speed=   0x elapsed=0:00:08.57    \nframe=    2 fps=0.2 q=40.0 size=       1KiB time=00:00:00.01 bitrate= 341.8kbits/s speed=0.00183x elapsed=0:00:09.08    \nframe=    4 fps=0.4 q=40.0 size=       1KiB time=00:00:00.05 bitrate= 113.9kbits/s speed=0.00517x elapsed=0:00:09.66    \nframe=    5 fps=0.5 q=39.0 size=       1KiB time=00:00:00.06 bitrate=  85.4kbits/s speed=0.00655x elapsed=0:00:10.18    \nframe=    7 fps=0.7 q=39.0 size=       1KiB time=00:00:00.10 bitrate=  57.0kbits/s speed=0.00935x elapsed=0:00:10.70    \nframe=    7 fps=0.6 q=39.0 size=       1KiB time=00:00:00.10 bitrate=  57.0kbits/s speed=0.00881x elapsed=0:00:11.34    \nframe=   10 fps=0.8 q=41.0 size=       1KiB time=00:00:00.15 bitrate=  38.0kbits/s speed=0.0126x elapsed=0:00:11.91    \nframe=   12 fps=1.0 q=41.0 size=       1KiB time=00:00:00.18 bitrate=  31.1kbits/s speed=0.0147x elapsed=0:00:12.47    \nframe=   14 fps=1.1 q=41.0 size=       1KiB time=00:00:00.21 bitrate=  26.3kbits/s speed=0.0167x elapsed=0:00:13.01    \nframe=   17 fps=1.3 q=35.0 size=       1KiB time=00:00:00.26 bitrate=  21.4kbits/s speed=0.0197x elapsed=0:00:13.55    \nframe=   19 fps=1.3 q=40.0 size=       1KiB time=00:00:00.30 bitrate=  19.0kbits/s speed=0.0213x elapsed=0:00:14.08    \nframe=   20 fps=1.4 q=41.0 size=       1KiB time=00:00:00.31 bitrate=  18.0kbits/s speed=0.0217x elapsed=0:00:14.61    \nframe=   22 fps=1.5 q=41.0 size=       1KiB time=00:00:00.35 bitrate=  16.3kbits/s speed=0.0231x elapsed=0:00:15.14    \nframe=   23 fps=1.5 q=40.0 size=       1KiB time=00:00:00.36 bitrate=  15.5kbits/s speed=0.0234x elapsed=0:00:15.68    \nframe=   25 fps=1.5 q=37.0 size=       1KiB time=00:00:00.40 bitrate=  14.2kbits/s speed=0.0244x elapsed=0:00:16.36    \nframe=   28 fps=1.7 q=45.0 size=       1KiB time=00:00:00.45 bitrate=  12.7kbits/s speed=0.0266x elapsed=0:00:16.92    \nframe=   29 fps=1.7 q=38.0 size=       1KiB time=00:00:00.46 bitrate=  12.2kbits/s speed=0.0267x elapsed=0:00:17.46    \nframe=   32 fps=1.8 q=45.0 size=       1KiB time=00:00:00.51 bitrate=  11.0kbits/s speed=0.0287x elapsed=0:00:18.03    \nframe=   34 fps=1.8 q=45.0 size=       1KiB time=00:00:00.55 bitrate=  10.4kbits/s speed=0.0297x elapsed=0:00:18.54    \nframe=   36 fps=1.9 q=45.0 size=       1KiB time=00:00:00.58 bitrate=   9.8kbits/s speed=0.0306x elapsed=0:00:19.07    \nframe=   38 fps=1.9 q=46.0 size=       1KiB time=00:00:00.61 bitrate=   9.2kbits/s speed=0.0315x elapsed=0:00:19.60    \nframe=   39 fps=1.9 q=43.0 size=       1KiB time=00:00:00.63 bitrate=   9.0kbits/s speed=0.0314x elapsed=0:00:20.13    \nframe=   40 fps=1.9 q=46.0 size=       1KiB time=00:00:00.65 bitrate=   8.8kbits/s speed=0.0313x elapsed=0:00:20.76    \nframe=   42 fps=2.0 q=48.0 size=       1KiB time=00:00:00.68 bitrate=   8.3kbits/s speed=0.032x elapsed=0:00:21.33    \nframe=   44 fps=2.0 q=48.0 size=       1KiB time=00:00:00.71 bitrate=   7.9kbits/s speed=0.0327x elapsed=0:00:21.88    \nframe=   47 fps=2.1 q=44.0 size=       1KiB time=00:00:00.76 bitrate=   7.4kbits/s speed=0.0342x elapsed=0:00:22.39    \nframe=   50 fps=2.2 q=48.0 size=       1KiB time=00:00:00.81 bitrate=   7.0kbits/s speed=0.0356x elapsed=0:00:22.91    \nframe=   51 fps=2.2 q=44.0 size=       1KiB time=00:00:00.83 bitrate=   6.8kbits/s speed=0.0356x elapsed=0:00:23.43    \nframe=   53 fps=2.2 q=43.0 size=       1KiB time=00:00:00.86 bitrate=   6.6kbits/s speed=0.0361x elapsed=0:00:23.98    \nframe=   54 fps=2.2 q=49.0 size=       1KiB time=00:00:00.88 bitrate=   6.4kbits/s speed=0.036x elapsed=0:00:24.52    \nframe=   55 fps=2.2 q=45.0 size=       1KiB time=00:00:00.90 bitrate=   6.3kbits/s speed=0.0359x elapsed=0:00:25.08    \nframe=   58 fps=2.3 q=49.0 size=       1KiB time=00:00:00.95 bitrate=   6.0kbits/s speed=0.0371x elapsed=0:00:25.63    \nframe=   61 fps=2.3 q=44.0 size=       1KiB time=00:00:01.00 bitrate=   5.7kbits/s speed=0.0382x elapsed=0:00:26.17    \nframe=   64 fps=2.4 q=50.0 size=       1KiB time=00:00:01.05 bitrate=   5.4kbits/s speed=0.0393x elapsed=0:00:26.70    \nframe=   66 fps=2.4 q=50.0 size=       1KiB time=00:00:01.08 bitrate=   5.3kbits/s speed=0.0398x elapsed=0:00:27.22    \nframe=   68 fps=2.5 q=50.0 size=       1KiB time=00:00:01.11 bitrate=   5.1kbits/s speed=0.0403x elapsed=0:00:27.74    \nframe=   70 fps=2.5 q=50.0 size=       1KiB time=00:00:01.15 bitrate=   5.0kbits/s speed=0.0407x elapsed=0:00:28.25    \nframe=   71 fps=2.5 q=46.0 size=       1KiB time=00:00:01.16 bitrate=   4.9kbits/s speed=0.0405x elapsed=0:00:28.81    \nframe=   73 fps=2.5 q=43.0 size=       1KiB time=00:00:01.20 bitrate=   4.7kbits/s speed=0.0408x elapsed=0:00:29.43    \nframe=   74 fps=2.5 q=49.0 size=       1KiB time=00:00:01.21 bitrate=   4.7kbits/s speed=0.0405x elapsed=0:00:30.05    \nframe=   77 fps=2.5 q=45.0 size=       1KiB time=00:00:01.26 bitrate=   4.5kbits/s speed=0.0414x elapsed=0:00:30.61    \nframe=   79 fps=2.5 q=46.0 size=       1KiB time=00:00:01.30 bitrate=   4.4kbits/s speed=0.0417x elapsed=0:00:31.15    \nframe=   81 fps=2.6 q=39.0 size=       1KiB time=00:00:01.33 bitrate=   4.3kbits/s speed=0.0421x elapsed=0:00:31.67    \nframe=   83 fps=2.6 q=46.0 size=       1KiB time=00:00:01.36 bitrate=   4.2kbits/s speed=0.0424x elapsed=0:00:32.19    \nframe=   85 fps=2.6 q=44.0 size=       1KiB time=00:00:01.40 bitrate=   4.1kbits/s speed=0.0428x elapsed=0:00:32.74    \nframe=   86 fps=2.6 q=49.0 size=       1KiB time=00:00:01.41 bitrate=   4.0kbits/s speed=0.0425x elapsed=0:00:33.29    \nframe=   87 fps=2.6 q=46.0 size=       1KiB time=00:00:01.43 bitrate=   4.0kbits/s speed=0.0424x elapsed=0:00:33.83    \nframe=   89 fps=2.6 q=44.0 size=       1KiB time=00:00:01.46 bitrate=   3.9kbits/s speed=0.0426x elapsed=0:00:34.43    \nframe=   91 fps=2.6 q=46.0 size=       1KiB time=00:00:01.50 bitrate=   3.8kbits/s speed=0.0428x elapsed=0:00:35.02    \nframe=   93 fps=2.6 q=44.0 size=       1KiB time=00:00:01.53 bitrate=   3.7kbits/s speed=0.043x elapsed=0:00:35.62    \nframe=   97 fps=2.7 q=40.0 size=       1KiB time=00:00:01.60 bitrate=   3.6kbits/s speed=0.0443x elapsed=0:00:36.15    \nframe=   99 fps=2.7 q=46.0 size=       1KiB time=00:00:01.63 bitrate=   3.5kbits/s speed=0.0445x elapsed=0:00:36.66    \nframe=  101 fps=2.7 q=44.0 size=       1KiB time=00:00:01.66 bitrate=   3.4kbits/s speed=0.0448x elapsed=0:00:37.21    \nframe=  102 fps=2.7 q=49.0 size=       1KiB time=00:00:01.68 bitrate=   3.4kbits/s speed=0.0446x elapsed=0:00:37.73    \nframe=  103 fps=2.7 q=46.0 size=       1KiB time=00:00:01.70 bitrate=   3.4kbits/s speed=0.0444x elapsed=0:00:38.28    \nframe=  106 fps=2.7 q=49.0 size=       1KiB time=00:00:01.73 bitrate=   3.3kbits/s speed=0.0446x elapsed=0:00:38.85    \nframe=  108 fps=2.7 q=49.0 size=       1KiB time=00:00:01.78 bitrate=   3.2kbits/s speed=0.0452x elapsed=0:00:39.42    \nframe=  110 fps=2.8 q=49.0 size=       1KiB time=00:00:01.81 bitrate=   3.1kbits/s speed=0.0454x elapsed=0:00:39.97    \nframe=  113 fps=2.8 q=39.0 size=       1KiB time=00:00:01.86 bitrate=   3.1kbits/s speed=0.0461x elapsed=0:00:40.51    \nframe=  115 fps=2.8 q=46.0 size=       1KiB time=00:00:01.90 bitrate=   3.0kbits/s speed=0.0463x elapsed=0:00:41.02    \nframe=  115 fps=2.8 q=46.0 size=       1KiB time=00:00:01.90 bitrate=   3.0kbits/s speed=0.0457x elapsed=0:00:41.55    \nframe=  116 fps=2.8 q=49.0 size=       1KiB time=00:00:01.91 bitrate=   3.0kbits/s speed=0.0455x elapsed=0:00:42.09    \nframe=  118 fps=2.8 q=49.0 size=       1KiB time=00:00:01.95 bitrate=   2.9kbits/s speed=0.0458x elapsed=0:00:42.61    \nframe=  119 fps=2.8 q=46.0 size=       1KiB time=00:00:01.96 bitrate=   2.9kbits/s speed=0.0456x elapsed=0:00:43.14    \nframe=  119 fps=2.7 q=46.0 size=       1KiB time=00:00:01.96 bitrate=   2.9kbits/s speed=0.045x elapsed=0:00:43.68    \nframe=  122 fps=2.8 q=49.0 size=       1KiB time=00:00:02.01 bitrate=   2.8kbits/s speed=0.0456x elapsed=0:00:44.22    \nframe=  123 fps=2.7 q=46.0 size=       1KiB time=00:00:02.03 bitrate=   2.8kbits/s speed=0.0454x elapsed=0:00:44.74    \nframe=  125 fps=2.8 q=44.0 size=       1KiB time=00:00:02.06 bitrate=   2.8kbits/s speed=0.0456x elapsed=0:00:45.35    \nframe=  128 fps=2.8 q=49.0 size=       1KiB time=00:00:02.10 bitrate=   2.7kbits/s speed=0.0457x elapsed=0:00:45.95    \nframe=  130 fps=2.8 q=49.0 size=       1KiB time=00:00:02.15 bitrate=   2.6kbits/s speed=0.0462x elapsed=0:00:46.50    \nframe=  132 fps=2.8 q=49.0 size=       1KiB time=00:00:02.18 bitrate=   2.6kbits/s speed=0.0464x elapsed=0:00:47.03    \nframe=  134 fps=2.8 q=49.0 size=       1KiB time=00:00:02.21 bitrate=   2.6kbits/s speed=0.0466x elapsed=0:00:47.58    \nframe=  135 fps=2.8 q=46.0 size=       1KiB time=00:00:02.23 bitrate=   2.6kbits/s speed=0.0464x elapsed=0:00:48.13    \nframe=  138 fps=2.8 q=49.0 size=       1KiB time=00:00:02.26 bitrate=   2.5kbits/s speed=0.0465x elapsed=0:00:48.74    \nframe=  139 fps=2.8 q=46.0 size=       1KiB time=00:00:02.30 bitrate=   2.5kbits/s speed=0.0466x elapsed=0:00:49.31    \nframe=  142 fps=2.8 q=48.0 size=       1KiB time=00:00:02.35 bitrate=   2.4kbits/s speed=0.0472x elapsed=0:00:49.83    \nframe=  145 fps=2.9 q=39.0 size=       1KiB time=00:00:02.40 bitrate=   2.4kbits/s speed=0.0476x elapsed=0:00:50.39    \nframe=  147 fps=2.9 q=45.0 size=       1KiB time=00:00:02.43 bitrate=   2.3kbits/s speed=0.0478x elapsed=0:00:50.90    \nframe=  149 fps=2.9 q=43.0 size=       1KiB time=00:00:02.46 bitrate=   2.3kbits/s speed=0.048x elapsed=0:00:51.41    \nframe=  150 fps=2.9 q=48.0 size=       1KiB time=00:00:02.48 bitrate=   2.3kbits/s speed=0.0478x elapsed=0:00:51.94    \nframe=  151 fps=2.9 q=45.0 size=       1KiB time=00:00:02.50 bitrate=   2.3kbits/s speed=0.0477x elapsed=0:00:52.46    \nframe=  154 fps=2.9 q=48.0 size=       1KiB time=00:00:02.53 bitrate=   2.2kbits/s speed=0.0478x elapsed=0:00:53.05    \nframe=  156 fps=2.9 q=48.0 size=       1KiB time=00:00:02.56 bitrate=   2.2kbits/s speed=0.0478x elapsed=0:00:53.66    \nframe=  158 fps=2.9 q=48.0 size=       1KiB time=00:00:02.61 bitrate=   2.2kbits/s speed=0.0483x elapsed=0:00:54.19    \nframe=  160 fps=2.9 q=48.0 size=       1KiB time=00:00:02.65 bitrate=   2.1kbits/s speed=0.0484x elapsed=0:00:54.75    \nframe=  162 fps=2.9 q=48.0 size=       1KiB time=00:00:02.68 bitrate=   2.1kbits/s speed=0.0485x elapsed=0:00:55.30    \nframe=  164 fps=2.9 q=48.0 size=       1KiB time=00:00:02.71 bitrate=   2.1kbits/s speed=0.0487x elapsed=0:00:55.81    \nframe=  166 fps=2.9 q=48.0 size=       1KiB time=00:00:02.75 bitrate=   2.1kbits/s speed=0.0488x elapsed=0:00:56.34    \nframe=  167 fps=2.9 q=45.0 size=       1KiB time=00:00:02.76 bitrate=   2.1kbits/s speed=0.0486x elapsed=0:00:56.88    \nframe=  169 fps=2.9 q=42.0 size=       1KiB time=00:00:02.80 bitrate=   2.0kbits/s speed=0.0487x elapsed=0:00:57.45    \nframe=  170 fps=2.9 q=48.0 size=       1KiB time=00:00:02.81 bitrate=   2.0kbits/s speed=0.0486x elapsed=0:00:57.96    \nframe=  173 fps=3.0 q=43.0 size=       1KiB time=00:00:02.86 bitrate=   2.0kbits/s speed=0.049x elapsed=0:00:58.50    \nframe=  176 fps=3.0 q=48.0 size=       1KiB time=00:00:02.91 bitrate=   2.0kbits/s speed=0.0494x elapsed=0:00:59.04    \nframe=  178 fps=3.0 q=48.0 size=       1KiB time=00:00:02.95 bitrate=   1.9kbits/s speed=0.0495x elapsed=0:00:59.55    \nframe=  180 fps=3.0 q=48.0 size=    5120KiB time=00:00:02.98 bitrate=14059.1kbits/s speed=0.0497x elapsed=0:01:00.07    \nframe=  182 fps=3.0 q=48.0 size=    5120KiB time=00:00:03.01 bitrate=13903.8kbits/s speed=0.0498x elapsed=0:01:00.59    \nframe=  183 fps=3.0 q=44.0 size=    5120KiB time=00:00:03.03 bitrate=13827.4kbits/s speed=0.0496x elapsed=0:01:01.11    \nframe=  184 fps=3.0 q=48.0 size=    5120KiB time=00:00:03.05 bitrate=13751.8kbits/s speed=0.0495x elapsed=0:01:01.63    \nframe=  186 fps=3.0 q=48.0 size=    5120KiB time=00:00:03.08 bitrate=13603.1kbits/s speed=0.0496x elapsed=0:01:02.16    \nframe=  189 fps=3.0 q=42.0 size=    5120KiB time=00:00:03.13 bitrate=13386.1kbits/s speed=0.05x elapsed=0:01:02.71    \nframe=  192 fps=3.0 q=48.0 size=    5120KiB time=00:00:03.18 bitrate=13175.8kbits/s speed=0.0503x elapsed=0:01:03.26    \nframe=  194 fps=3.0 q=48.0 size=    5120KiB time=00:00:03.21 bitrate=13039.3kbits/s speed=0.0504x elapsed=0:01:03.79    \nframe=  197 fps=3.1 q=42.0 size=    5120KiB time=00:00:03.26 bitrate=12839.7kbits/s speed=0.0508x elapsed=0:01:04.31    \nframe=  198 fps=3.1 q=48.0 size=    5120KiB time=00:00:03.28 bitrate=12774.5kbits/s speed=0.0506x elapsed=0:01:04.90    \nframe=  199 fps=3.0 q=44.0 size=    5120KiB time=00:00:03.30 bitrate=12710.0kbits/s speed=0.0504x elapsed=0:01:05.44    \nframe=  200 fps=3.0 q=48.0 size=    5120KiB time=00:00:03.31 bitrate=12646.1kbits/s speed=0.0503x elapsed=0:01:05.97    \nframe=  202 fps=3.0 q=48.0 size=    5120KiB time=00:00:03.35 bitrate=12520.3kbits/s speed=0.0504x elapsed=0:01:06.49    \nframe=  205 fps=3.1 q=42.0 size=    5120KiB time=00:00:03.40 bitrate=12336.2kbits/s speed=0.0507x elapsed=0:01:07.00    \nframe=  207 fps=3.1 q=43.0 size=    5120KiB time=00:00:03.43 bitrate=12216.4kbits/s speed=0.0508x elapsed=0:01:07.54    \nframe=  209 fps=3.1 q=37.0 size=    5120KiB time=00:00:03.46 bitrate=12099.0kbits/s speed=0.0509x elapsed=0:01:08.11    \nframe=  213 fps=3.1 q=42.0 size=    5120KiB time=00:00:03.53 bitrate=11870.7kbits/s speed=0.0515x elapsed=0:01:08.63    \nframe=  217 fps=3.1 q=41.0 size=    5120KiB time=00:00:03.60 bitrate=11650.8kbits/s speed=0.0521x elapsed=0:01:09.14    \nframe=  217 fps=3.1 q=41.0 size=    5120KiB time=00:00:03.60 bitrate=11650.8kbits/s speed=0.0517x elapsed=0:01:09.66    \nframe=  217 fps=3.1 q=41.0 size=    5120KiB time=00:00:03.60 bitrate=11650.8kbits/s speed=0.0513x elapsed=0:01:10.22    \nframe=  221 fps=3.1 q=42.0 size=    5120KiB time=00:00:03.66 bitrate=11439.0kbits/s speed=0.0518x elapsed=0:01:10.74    \nframe=  221 fps=3.1 q=42.0 size=    5120KiB time=00:00:03.66 bitrate=11439.0kbits/s speed=0.0515x elapsed=0:01:11.25    \nframe=  225 fps=3.1 q=37.0 size=    5120KiB time=00:00:03.73 bitrate=11234.7kbits/s speed=0.052x elapsed=0:01:11.78    \nframe=  229 fps=3.2 q=41.0 size=    5120KiB time=00:00:03.80 bitrate=11037.6kbits/s speed=0.0526x elapsed=0:01:12.29    \nframe=  231 fps=3.2 q=43.0 size=    5120KiB time=00:00:03.83 bitrate=10941.7kbits/s speed=0.0526x elapsed=0:01:12.81    \nframe=  233 fps=3.2 q=41.0 size=    5120KiB time=00:00:03.86 bitrate=10847.3kbits/s speed=0.0527x elapsed=0:01:13.33    \nframe=  233 fps=3.2 q=41.0 size=    5120KiB time=00:00:03.86 bitrate=10847.3kbits/s speed=0.0523x elapsed=0:01:13.86    \nframe=  235 fps=3.2 q=43.0 size=    5120KiB time=00:00:03.90 bitrate=10754.6kbits/s speed=0.0524x elapsed=0:01:14.45    \nframe=  237 fps=3.2 q=41.0 size=    5120KiB time=00:00:03.93 bitrate=10663.5kbits/s speed=0.0525x elapsed=0:01:14.99    \nframe=  241 fps=3.2 q=36.0 size=    5120KiB time=00:00:04.00 bitrate=10485.8kbits/s speed=0.053x elapsed=0:01:15.52    \nframe=  243 fps=3.2 q=43.0 size=    5120KiB time=00:00:04.03 bitrate=10399.1kbits/s speed=0.053x elapsed=0:01:16.03    \nframe=  245 fps=3.2 q=41.0 size=    5120KiB time=00:00:04.06 bitrate=10313.9kbits/s speed=0.0531x elapsed=0:01:16.56    \nframe=  249 fps=3.2 q=40.0 size=    5120KiB time=00:00:04.13 bitrate=10147.5kbits/s speed=0.0536x elapsed=0:01:17.07    \nframe=  249 fps=3.2 q=40.0 size=    5120KiB time=00:00:04.13 bitrate=10147.5kbits/s speed=0.0533x elapsed=0:01:17.59    \nframe=  253 fps=3.2 q=41.0 size=    5120KiB time=00:00:04.20 bitrate=9986.4kbits/s speed=0.0537x elapsed=0:01:18.15    \nframe=  253 fps=3.2 q=41.0 size=    5120KiB time=00:00:04.20 bitrate=9986.4kbits/s speed=0.0533x elapsed=0:01:18.74    \nframe=  257 fps=3.2 q=35.0 size=    5120KiB time=00:00:04.26 bitrate=9830.4kbits/s speed=0.0538x elapsed=0:01:19.30    \nframe=  259 fps=3.2 q=43.0 size=    5120KiB time=00:00:04.30 bitrate=9754.2kbits/s speed=0.0539x elapsed=0:01:19.83    \nframe=  261 fps=3.2 q=41.0 size=    5120KiB time=00:00:04.33 bitrate=9679.2kbits/s speed=0.0539x elapsed=0:01:20.37    \nframe=  265 fps=3.3 q=40.0 size=    5120KiB time=00:00:04.40 bitrate=9532.5kbits/s speed=0.0544x elapsed=0:01:20.88    \nframe=  265 fps=3.3 q=40.0 size=    5120KiB time=00:00:04.40 bitrate=9532.5kbits/s speed=0.0541x elapsed=0:01:21.39    \nframe=  265 fps=3.2 q=40.0 size=    5120KiB time=00:00:04.40 bitrate=9532.5kbits/s speed=0.0537x elapsed=0:01:21.92    \nframe=  269 fps=3.3 q=41.0 size=    5120KiB time=00:00:04.46 bitrate=9390.2kbits/s speed=0.0541x elapsed=0:01:22.49    \nframe=  271 fps=3.3 q=44.0 size=    5120KiB time=00:00:04.50 bitrate=9320.7kbits/s speed=0.0542x elapsed=0:01:23.01    \nframe=  273 fps=3.3 q=35.0 size=    5120KiB time=00:00:04.53 bitrate=9252.1kbits/s speed=0.0542x elapsed=0:01:23.58    \nframe=  277 fps=3.3 q=44.0 size=    5120KiB time=00:00:04.60 bitrate=9118.1kbits/s speed=0.0547x elapsed=0:01:24.11    \nframe=  277 fps=3.3 q=44.0 size=    5120KiB time=00:00:04.60 bitrate=9118.1kbits/s speed=0.0544x elapsed=0:01:24.61    \nframe=  281 fps=3.3 q=40.0 size=    5120KiB time=00:00:04.66 bitrate=8987.8kbits/s speed=0.0548x elapsed=0:01:25.14    \nframe=  281 fps=3.3 q=40.0 size=    5120KiB time=00:00:04.66 bitrate=8987.8kbits/s speed=0.0545x elapsed=0:01:25.66    \nframe=  283 fps=3.3 q=43.0 size=    5120KiB time=00:00:04.70 bitrate=8924.1kbits/s speed=0.0545x elapsed=0:01:26.18    \nframe=  285 fps=3.3 q=44.0 size=    5120KiB time=00:00:04.73 bitrate=8861.2kbits/s speed=0.0546x elapsed=0:01:26.70    \nframe=  293 fps=3.4 q=40.0 size=    5120KiB time=00:00:04.86 bitrate=8618.4kbits/s speed=0.0558x elapsed=0:01:27.24    \n[out#0/matroska @ 000002a4f5c49480] video:7961KiB audio:0KiB subtitle:0KiB other streams:0KiB global headers:0KiB muxing overhead: 0.027502%\nframe=  300 fps=3.4 q=46.0 Lsize=    7963KiB time=00:00:04.98 bitrate=13090.6kbits/s speed=0.0569x elapsed=0:01:27.54    \n",
  "seconds": 88.57641935348511,
  "probe_out": {}
}